{
    "asset" : {
        "generator" : "Khronos glTF Blender I/O v1.3.48",
        "version" : "2.0"
    },
    "scene" : 0,
    "scenes" : [
        {
            "name" : "Scene",
            "nodes" : [
                0,
                1,
                2
            ]
        }
    ],
    "nodes" : [
        {
            "mesh" : 0,
            "name" : "Cube.003",
            "translation" : [
                0.08490347862243652,
                1.8286744356155396,
                0
            ]
        },
        {
            "mesh" : 1,
            "name" : "Kappe.002",
            "translation" : [
                0.08490347862243652,
                2.728245973587036,
                0
            ]
        },
        {
            "mesh" : 2,
            "name" : "Kappe.003",
            "translation" : [
                0.08521294593811035,
                2.728245973587036,
                0
            ]
        }
    ],
    "materials" : [
        {
            "doubleSided" : true,
            "emissiveFactor" : [
                0,
                0,
                0
            ],
            "name" : "Material.003",
            "pbrMetallicRoughness" : {
                "baseColorTexture" : {
                    "index" : 0,
                    "texCoord" : 0
                },
                "metallicFactor" : 0,
                "metallicRoughnessTexture" : {
                    "index" : 1,
                    "texCoord" : 0
                }
            }
        },
        {
            "doubleSided" : true,
            "emissiveFactor" : [
                0,
                0,
                0
            ],
            "name" : "Material.004",
            "pbrMetallicRoughness" : {
                "baseColorFactor" : [
                    0.800000011920929,
                    0.800000011920929,
                    0.800000011920929,
                    1
                ],
                "metallicFactor" : 1,
                "roughnessFactor" : 0.4632495045661926
            }
        },
        {
            "doubleSided" : true,
            "name" : "Material",
            "pbrMetallicRoughness" : {}
        },
        {
            "doubleSided" : true,
            "name" : "Material.001",
            "pbrMetallicRoughness" : {}
        }
    ],
    "meshes" : [
        {
            "name" : "Cube.004",
            "primitives" : [
                {
                    "attributes" : {
                        "POSITION" : 0,
                        "NORMAL" : 1,
                        "TEXCOORD_0" : 2
                    },
                    "indices" : 3,
                    "material" : 0
                },
                {
                    "attributes" : {
                        "POSITION" : 4,
                        "NORMAL" : 5,
                        "TEXCOORD_0" : 6
                    },
                    "indices" : 7,
                    "material" : 1
                }
            ]
        },
        {
            "name" : "Cube.011",
            "primitives" : [
                {
                    "attributes" : {
                        "POSITION" : 8,
                        "NORMAL" : 9,
                        "TEXCOORD_0" : 10
                    },
                    "indices" : 11,
                    "material" : 2
                }
            ]
        },
        {
            "name" : "Cube.012",
            "primitives" : [
                {
                    "attributes" : {
                        "POSITION" : 12,
                        "NORMAL" : 13,
                        "TEXCOORD_0" : 14
                    },
                    "indices" : 15,
                    "material" : 3
                }
            ]
        }
    ],
    "textures" : [
        {
            "source" : 0
        },
        {
            "source" : 1
        }
    ],
    "images" : [
        {
            "bufferView" : 4,
            "mimeType" : "image/png",
            "name" : "Ideology 2"
        },
        {
            "bufferView" : 5,
            "mimeType" : "image/png",
            "name" : "ideology_grey"
        }
    ],
    "accessors" : [
        {
            "bufferView" : 0,
            "componentType" : 5126,
            "count" : 445,
            "max" : [
                0.2053421437740326,
                0.718668520450592,
                0.2053421288728714
            ],
            "min" : [
                -0.2053421288728714,
                -0.7290023565292358,
                -0.2053421437740326
            ],
            "type" : "VEC3"
        },
        {
            "bufferView" : 1,
            "componentType" : 5126,
            "count" : 445,
            "type" : "VEC3"
        },
        {
            "bufferView" : 2,
            "componentType" : 5126,
            "count" : 445,
            "type" : "VEC2"
        },
        {
            "bufferView" : 3,
            "componentType" : 5123,
            "count" : 1824,
            "type" : "SCALAR"
        },
        {
            "bufferView" : 6,
            "componentType" : 5126,
            "count" : 757,
            "max" : [
                0.19806300103664398,
                0.9494979381561279,
                0.19806300103664398
            ],
            "min" : [
                -0.1980629861354828,
                -0.7577705979347229,
                -0.19806301593780518
            ],
            "type" : "VEC3"
        },
        {
            "bufferView" : 7,
            "componentType" : 5126,
            "count" : 757,
            "type" : "VEC3"
        },
        {
            "bufferView" : 8,
            "componentType" : 5126,
            "count" : 757,
            "type" : "VEC2"
        },
        {
            "bufferView" : 9,
            "componentType" : 5123,
            "count" : 3216,
            "type" : "SCALAR"
        },
        {
            "bufferView" : 10,
            "componentType" : 5126,
            "count" : 3228,
            "max" : [
                0.2327575385570526,
                0.23478473722934723,
                0.23275752365589142
            ],
            "min" : [
                -0.24033546447753906,
                -0.11131998896598816,
                -0.23275752365589142
            ],
            "type" : "VEC3"
        },
        {
            "bufferView" : 11,
            "componentType" : 5126,
            "count" : 3228,
            "type" : "VEC3"
        },
        {
            "bufferView" : 12,
            "componentType" : 5126,
            "count" : 3228,
            "type" : "VEC2"
        },
        {
            "bufferView" : 13,
            "componentType" : 5123,
            "count" : 18528,
            "type" : "SCALAR"
        },
        {
            "bufferView" : 14,
            "componentType" : 5126,
            "count" : 5920,
            "max" : [
                0.2362154722213745,
                0.23621933162212372,
                0.2362154722213745
            ],
            "min" : [
                -0.24429942667484283,
                0.10893671959638596,
                -0.23621539771556854
            ],
            "type" : "VEC3"
        },
        {
            "bufferView" : 15,
            "componentType" : 5126,
            "count" : 5920,
            "type" : "VEC3"
        },
        {
            "bufferView" : 16,
            "componentType" : 5126,
            "count" : 5920,
            "type" : "VEC2"
        },
        {
            "bufferView" : 17,
            "componentType" : 5123,
            "count" : 35520,
            "type" : "SCALAR"
        }
    ],
    "bufferViews" : [
        {
            "buffer" : 0,
            "byteLength" : 5340,
            "byteOffset" : 0
        },
        {
            "buffer" : 0,
            "byteLength" : 5340,
            "byteOffset" : 5340
        },
        {
            "buffer" : 0,
            "byteLength" : 3560,
            "byteOffset" : 10680
        },
        {
            "buffer" : 0,
            "byteLength" : 3648,
            "byteOffset" : 14240
        },
        {
            "buffer" : 0,
            "byteLength" : 579426,
            "byteOffset" : 17888
        },
        {
            "buffer" : 0,
            "byteLength" : 1457945,
            "byteOffset" : 597316
        },
        {
            "buffer" : 0,
            "byteLength" : 9084,
            "byteOffset" : 2055264
        },
        {
            "buffer" : 0,
            "byteLength" : 9084,
            "byteOffset" : 2064348
        },
        {
            "buffer" : 0,
            "byteLength" : 6056,
            "byteOffset" : 2073432
        },
        {
            "buffer" : 0,
            "byteLength" : 6432,
            "byteOffset" : 2079488
        },
        {
            "buffer" : 0,
            "byteLength" : 38736,
            "byteOffset" : 2085920
        },
        {
            "buffer" : 0,
            "byteLength" : 38736,
            "byteOffset" : 2124656
        },
        {
            "buffer" : 0,
            "byteLength" : 25824,
            "byteOffset" : 2163392
        },
        {
            "buffer" : 0,
            "byteLength" : 37056,
            "byteOffset" : 2189216
        },
        {
            "buffer" : 0,
            "byteLength" : 71040,
            "byteOffset" : 2226272
        },
        {
            "buffer" : 0,
            "byteLength" : 71040,
            "byteOffset" : 2297312
        },
        {
            "buffer" : 0,
            "byteLength" : 47360,
            "byteOffset" : 2368352
        },
        {
            "buffer" : 0,
            "byteLength" : 71040,
            "byteOffset" : 2415712
        }
    ],
    "buffers" : [
        {
            "byteLength" : 2486752,
            "uri" : "data:application/octet-stream;base64,"
        }
    ]
}
