{
    "asset" : {
        "generator" : "Khronos glTF Blender I/O v1.3.48",
        "version" : "2.0"
    },
    "scene" : 0,
    "scenes" : [
        {
            "name" : "Scene",
            "nodes" : [
                0
            ]
        }
    ],
    "nodes" : [
        {
            "mesh" : 0,
            "name" : "Cube.003"
        }
    ],
    "materials" : [
        {
            "doubleSided" : true,
            "emissiveFactor" : [
                0,
                0,
                0
            ],
            "name" : "Material.003",
            "pbrMetallicRoughness" : {
                "baseColorTexture" : {
                    "index" : 0,
                    "texCoord" : 0
                },
                "metallicFactor" : 0,
                "metallicRoughnessTexture" : {
                    "index" : 1,
                    "texCoord" : 0
                }
            }
        },
        {
            "doubleSided" : true,
            "emissiveFactor" : [
                0,
                0,
                0
            ],
            "name" : "Material.004",
            "pbrMetallicRoughness" : {
                "baseColorFactor" : [
                    0.800000011920929,
                    0.800000011920929,
                    0.800000011920929,
                    1
                ],
                "metallicFactor" : 1,
                "roughnessFactor" : 0.4632495045661926
            }
        },
        {
            "doubleSided" : true,
            "name" : "Material",
            "pbrMetallicRoughness" : {}
        },
        {
            "doubleSided" : true,
            "name" : "Material.001",
            "pbrMetallicRoughness" : {}
        }
    ],
    "meshes" : [
        {
            "name" : "Cube.004",
            "primitives" : [
                {
                    "attributes" : {
                        "POSITION" : 0,
                        "NORMAL" : 1,
                        "TEXCOORD_0" : 2
                    },
                    "indices" : 3,
                    "material" : 0
                },
                {
                    "attributes" : {
                        "POSITION" : 4,
                        "NORMAL" : 5,
                        "TEXCOORD_0" : 6
                    },
                    "indices" : 7,
                    "material" : 1
                },
                {
                    "attributes" : {
                        "POSITION" : 8,
                        "NORMAL" : 9,
                        "TEXCOORD_0" : 10
                    },
                    "indices" : 11,
                    "material" : 2
                },
                {
                    "attributes" : {
                        "POSITION" : 12,
                        "NORMAL" : 13,
                        "TEXCOORD_0" : 14
                    },
                    "indices" : 15,
                    "material" : 3
                }
            ]
        }
    ],
    "textures" : [
        {
            "source" : 0
        },
        {
            "source" : 1
        }
    ],
    "images" : [
        {
            "bufferView" : 4,
            "mimeType" : "image/png",
            "name" : "Ideology 2"
        },
        {
            "bufferView" : 5,
            "mimeType" : "image/png",
            "name" : "ideology_grey"
        }
    ],
    "accessors" : [
        {
            "bufferView" : 0,
            "componentType" : 5126,
            "count" : 5409,
            "max" : [
                0.2115914225578308,
                1.474664568901062,
                0.20545493066310883
            ],
            "min" : [
                -0.19931843876838684,
                0.02699357271194458,
                -0.20545493066310883
            ],
            "type" : "VEC3"
        },
        {
            "bufferView" : 1,
            "componentType" : 5126,
            "count" : 5409,
            "type" : "VEC3"
        },
        {
            "bufferView" : 2,
            "componentType" : 5126,
            "count" : 5409,
            "type" : "VEC2"
        },
        {
            "bufferView" : 3,
            "componentType" : 5123,
            "count" : 29184,
            "type" : "SCALAR"
        },
        {
            "bufferView" : 6,
            "componentType" : 5126,
            "count" : 9478,
            "max" : [
                0.20419949293136597,
                1.7054939270019531,
                0.19806300103664398
            ],
            "min" : [
                -0.1919264942407608,
                -0.0017746686935424805,
                -0.19806301593780518
            ],
            "type" : "VEC3"
        },
        {
            "bufferView" : 7,
            "componentType" : 5126,
            "count" : 9478,
            "type" : "VEC3"
        },
        {
            "bufferView" : 8,
            "componentType" : 5126,
            "count" : 9478,
            "type" : "VEC2"
        },
        {
            "bufferView" : 9,
            "componentType" : 5123,
            "count" : 51456,
            "type" : "SCALAR"
        },
        {
            "bufferView" : 10,
            "componentType" : 5126,
            "count" : 3228,
            "max" : [
                0.2388940304517746,
                1.8903522491455078,
                0.23275752365589142
            ],
            "min" : [
                -0.23419897258281708,
                1.5442473888397217,
                -0.23275752365589142
            ],
            "type" : "VEC3"
        },
        {
            "bufferView" : 11,
            "componentType" : 5126,
            "count" : 3228,
            "type" : "VEC3"
        },
        {
            "bufferView" : 12,
            "componentType" : 5126,
            "count" : 3228,
            "type" : "VEC2"
        },
        {
            "bufferView" : 13,
            "componentType" : 5123,
            "count" : 18528,
            "type" : "SCALAR"
        },
        {
            "bufferView" : 14,
            "componentType" : 5126,
            "count" : 5920,
            "max" : [
                0.24266143143177032,
                1.891786813735962,
                0.2362154722213745
            ],
            "min" : [
                -0.23785346746444702,
                1.7645041942596436,
                -0.23621539771556854
            ],
            "type" : "VEC3"
        },
        {
            "bufferView" : 15,
            "componentType" : 5126,
            "count" : 5920,
            "type" : "VEC3"
        },
        {
            "bufferView" : 16,
            "componentType" : 5126,
            "count" : 5920,
            "type" : "VEC2"
        },
        {
            "bufferView" : 17,
            "componentType" : 5123,
            "count" : 35520,
            "type" : "SCALAR"
        }
    ],
    "bufferViews" : [
        {
            "buffer" : 0,
            "byteLength" : 64908,
            "byteOffset" : 0
        },
        {
            "buffer" : 0,
            "byteLength" : 64908,
            "byteOffset" : 64908
        },
        {
            "buffer" : 0,
            "byteLength" : 43272,
            "byteOffset" : 129816
        },
        {
            "buffer" : 0,
            "byteLength" : 58368,
            "byteOffset" : 173088
        },
        {
            "buffer" : 0,
            "byteLength" : 579426,
            "byteOffset" : 231456
        },
        {
            "buffer" : 0,
            "byteLength" : 1457945,
            "byteOffset" : 810884
        },
        {
            "buffer" : 0,
            "byteLength" : 113736,
            "byteOffset" : 2268832
        },
        {
            "buffer" : 0,
            "byteLength" : 113736,
            "byteOffset" : 2382568
        },
        {
            "buffer" : 0,
            "byteLength" : 75824,
            "byteOffset" : 2496304
        },
        {
            "buffer" : 0,
            "byteLength" : 102912,
            "byteOffset" : 2572128
        },
        {
            "buffer" : 0,
            "byteLength" : 38736,
            "byteOffset" : 2675040
        },
        {
            "buffer" : 0,
            "byteLength" : 38736,
            "byteOffset" : 2713776
        },
        {
            "buffer" : 0,
            "byteLength" : 25824,
            "byteOffset" : 2752512
        },
        {
            "buffer" : 0,
            "byteLength" : 37056,
            "byteOffset" : 2778336
        },
        {
            "buffer" : 0,
            "byteLength" : 71040,
            "byteOffset" : 2815392
        },
        {
            "buffer" : 0,
            "byteLength" : 71040,
            "byteOffset" : 2886432
        },
        {
            "buffer" : 0,
            "byteLength" : 47360,
            "byteOffset" : 2957472
        },
        {
            "buffer" : 0,
            "byteLength" : 71040,
            "byteOffset" : 3004832
        }
    ],
    "buffers" : [
        {
            "byteLength" : 3075872,
            "uri" : "data:application/octet-stream;base64,"
        }
    ]
}
